# xmcd
#
# Track frame offsets:
#	150
#	14287
#	30138
#	46698
#	59832
#	72735
#	88867
#
# Disc length: 1385 seconds
# Revision: 0
# Processed by: cddbd v1.5.2PL0 Copyright (c) Steve Scherf et al.
# Submitted via: dBpowerAMP V12.0
#
DISCID=58056707
DTITLE=The Price Sisters - The Price Sisters
DYEAR=2016
DGENRE=Coiuntry
TTITLE0=Silver Tongue and Gold Plated Lies
TTITLE1=Budded on Earth to Bloom in Heaven
TTITLE2=Get Up John
TTITLE3=It's Happening Again
TTITLE4=Lost
TTITLE5=The One I Love is Gone
TTITLE6=What Does the Deep Sea Say
EXTD=
EXTT0=
EXTT1=
EXTT2=
EXTT3=
EXTT4=
EXTT5=
EXTT6=
PLAYORDER=
